# xmcd
#
# Track frame offsets:
#	150
#	2167
#	20135
#	41937
#	63457
#	78720
#	113514
#	136069
#	158099
#	173834
#	195746
#	219686
#	252127
#	273628
#	292576
#	311091
#	335474
#
# Disc length: 4683 seconds
#
# Revision: 1
# Processed by: cddbd v1.5.2PL0 Copyright (c) Steve Scherf et al.
# Submitted via: audiograbber 1.83.01
#
DISCID=f5124911
DTITLE=The Charlie Daniels Band - The Live Record
DYEAR=2001
DGENRE=Southern Rock
TTITLE0=Intro
TTITLE1=Road Dogs
TTITLE2=Caballo Diablo
TTITLE3=Wooley Swamp
TTITLE4=Simple Man
TTITLE5=Sidewinder
TTITLE6=Trudy
TTITLE7=Still In Saigon
TTITLE8=In America
TTITLE9=Take The Highway
TTITLE10=In Memory Of Elizabeth Reed
TTITLE11=Freebird
TTITLE12=The South's Gonna Do It (Again)
TTITLE13=Long Haired Country Boy
TTITLE14=Drinkin' My Baby Goodbye
TTITLE15=The Devil Went Down To Georgia
TTITLE16=This Ain't No Rag, It's A Flag
EXTD=
EXTT0=
EXTT1=
EXTT2=
EXTT3=
EXTT4=
EXTT5=
EXTT6=
EXTT7=
EXTT8=
EXTT9=
EXTT10=
EXTT11=
EXTT12=
EXTT13=
EXTT14=
EXTT15=
EXTT16=
PLAYORDER=
